<mxfile host="Electron" modified="2023-10-23T05:56:22.813Z" agent="Mozilla/5.0 (Windows NT 10.0; Win64; x64) AppleWebKit/537.36 (KHTML, like Gecko) draw.io/22.0.3 Chrome/114.0.5735.289 Electron/25.8.4 Safari/537.36" etag="YmCbRTPkXub_RYChqM9A" version="22.0.3" type="device">
  <diagram name="Page-1" id="R9kBBKoNU0aGtUqeai7a">
    <mxGraphModel dx="1595" dy="888" grid="1" gridSize="10" guides="1" tooltips="1" connect="1" arrows="1" fold="1" page="1" pageScale="1" pageWidth="1169" pageHeight="827" math="1" shadow="0">
      <root>
        <mxCell id="0" />
        <mxCell id="1" parent="0" />
        <mxCell id="Tek_yk6_RnRRJoYfqtPH-3" value="" style="edgeStyle=orthogonalEdgeStyle;rounded=0;orthogonalLoop=1;jettySize=auto;html=1;" parent="1" source="Tek_yk6_RnRRJoYfqtPH-1" target="Tek_yk6_RnRRJoYfqtPH-2" edge="1">
          <mxGeometry relative="1" as="geometry" />
        </mxCell>
        <mxCell id="Tek_yk6_RnRRJoYfqtPH-5" value="" style="edgeStyle=orthogonalEdgeStyle;rounded=0;orthogonalLoop=1;jettySize=auto;html=1;" parent="1" source="Tek_yk6_RnRRJoYfqtPH-1" target="Tek_yk6_RnRRJoYfqtPH-4" edge="1">
          <mxGeometry relative="1" as="geometry">
            <Array as="points">
              <mxPoint x="295" y="170" />
              <mxPoint x="490" y="170" />
            </Array>
          </mxGeometry>
        </mxCell>
        <mxCell id="Tek_yk6_RnRRJoYfqtPH-1" value="Run to failure datasets from ATE in the Lab" style="rounded=1;whiteSpace=wrap;html=1;fillColor=#f5f5f5;fontColor=#333333;strokeColor=#666666;" parent="1" vertex="1">
          <mxGeometry x="210" y="80" width="170" height="60" as="geometry" />
        </mxCell>
        <mxCell id="Tek_yk6_RnRRJoYfqtPH-17" value="" style="edgeStyle=orthogonalEdgeStyle;rounded=0;orthogonalLoop=1;jettySize=auto;html=1;entryX=0;entryY=0.5;entryDx=0;entryDy=0;" parent="1" source="Tek_yk6_RnRRJoYfqtPH-2" target="Tek_yk6_RnRRJoYfqtPH-16" edge="1">
          <mxGeometry relative="1" as="geometry">
            <Array as="points">
              <mxPoint x="50" y="529" />
            </Array>
          </mxGeometry>
        </mxCell>
        <mxCell id="Nw7tmcvT5D7PcshaBYKt-11" style="edgeStyle=orthogonalEdgeStyle;rounded=0;orthogonalLoop=1;jettySize=auto;html=1;exitX=0.75;exitY=1;exitDx=0;exitDy=0;entryX=0.5;entryY=0;entryDx=0;entryDy=0;" edge="1" parent="1" source="Tek_yk6_RnRRJoYfqtPH-2" target="Nw7tmcvT5D7PcshaBYKt-9">
          <mxGeometry relative="1" as="geometry" />
        </mxCell>
        <mxCell id="Tek_yk6_RnRRJoYfqtPH-2" value="Degradation data" style="whiteSpace=wrap;html=1;rounded=1;fillColor=#f5f5f5;fontColor=#333333;strokeColor=#666666;" parent="1" vertex="1">
          <mxGeometry x="20" y="200" width="200" height="60" as="geometry" />
        </mxCell>
        <mxCell id="Tek_yk6_RnRRJoYfqtPH-8" value="" style="edgeStyle=orthogonalEdgeStyle;rounded=0;orthogonalLoop=1;jettySize=auto;html=1;" parent="1" source="Tek_yk6_RnRRJoYfqtPH-4" target="Tek_yk6_RnRRJoYfqtPH-6" edge="1">
          <mxGeometry relative="1" as="geometry">
            <Array as="points">
              <mxPoint x="490" y="370" />
              <mxPoint x="591" y="370" />
            </Array>
          </mxGeometry>
        </mxCell>
        <mxCell id="Tek_yk6_RnRRJoYfqtPH-15" style="edgeStyle=orthogonalEdgeStyle;rounded=0;orthogonalLoop=1;jettySize=auto;html=1;exitX=0.5;exitY=1;exitDx=0;exitDy=0;entryX=0.5;entryY=0;entryDx=0;entryDy=0;" parent="1" source="Tek_yk6_RnRRJoYfqtPH-4" target="Tek_yk6_RnRRJoYfqtPH-12" edge="1">
          <mxGeometry relative="1" as="geometry">
            <Array as="points">
              <mxPoint x="490" y="370" />
              <mxPoint x="395" y="370" />
            </Array>
          </mxGeometry>
        </mxCell>
        <mxCell id="Tek_yk6_RnRRJoYfqtPH-4" value="Time-to-failure data" style="whiteSpace=wrap;html=1;rounded=1;fillColor=#f5f5f5;fontColor=#333333;strokeColor=#666666;" parent="1" vertex="1">
          <mxGeometry x="410" y="200" width="160" height="60" as="geometry" />
        </mxCell>
        <mxCell id="Tek_yk6_RnRRJoYfqtPH-44" style="edgeStyle=orthogonalEdgeStyle;rounded=0;orthogonalLoop=1;jettySize=auto;html=1;exitX=0.5;exitY=1;exitDx=0;exitDy=0;entryX=0.5;entryY=0;entryDx=0;entryDy=0;" parent="1" source="Tek_yk6_RnRRJoYfqtPH-6" target="Tek_yk6_RnRRJoYfqtPH-26" edge="1">
          <mxGeometry relative="1" as="geometry" />
        </mxCell>
        <mxCell id="Tek_yk6_RnRRJoYfqtPH-6" value="Distribution of Time-to-Failure (Weibull analysis)" style="whiteSpace=wrap;html=1;rounded=1;fillColor=#d5e8d4;strokeColor=#82b366;" parent="1" vertex="1">
          <mxGeometry x="506" y="409" width="170" height="60" as="geometry" />
        </mxCell>
        <mxCell id="Tek_yk6_RnRRJoYfqtPH-12" value="Distribution of Failure threshold&lt;br&gt;(e.g., Gaussian)" style="whiteSpace=wrap;html=1;rounded=1;fillColor=#f8cecc;strokeColor=#b85450;" parent="1" vertex="1">
          <mxGeometry x="315" y="409" width="160" height="60" as="geometry" />
        </mxCell>
        <mxCell id="Tek_yk6_RnRRJoYfqtPH-42" style="edgeStyle=orthogonalEdgeStyle;rounded=0;orthogonalLoop=1;jettySize=auto;html=1;exitX=1;exitY=0.5;exitDx=0;exitDy=0;entryX=0;entryY=0.5;entryDx=0;entryDy=0;" parent="1" source="Tek_yk6_RnRRJoYfqtPH-16" target="Tek_yk6_RnRRJoYfqtPH-24" edge="1">
          <mxGeometry relative="1" as="geometry" />
        </mxCell>
        <mxCell id="Tek_yk6_RnRRJoYfqtPH-16" value="Stochastic filtering methods" style="whiteSpace=wrap;html=1;rounded=1;fillColor=#f8cecc;strokeColor=#b85450;" parent="1" vertex="1">
          <mxGeometry x="111" y="499" width="180" height="60" as="geometry" />
        </mxCell>
        <mxCell id="Tek_yk6_RnRRJoYfqtPH-18" value="Indirect observations" style="text;html=1;strokeColor=none;fillColor=none;align=center;verticalAlign=middle;whiteSpace=wrap;rounded=0;rotation=-90;" parent="1" vertex="1">
          <mxGeometry x="-40" y="414" width="140" height="30" as="geometry" />
        </mxCell>
        <mxCell id="Tek_yk6_RnRRJoYfqtPH-20" value="" style="edgeStyle=orthogonalEdgeStyle;rounded=0;orthogonalLoop=1;jettySize=auto;html=1;" parent="1" edge="1">
          <mxGeometry relative="1" as="geometry">
            <mxPoint x="50" y="430" as="sourcePoint" />
            <mxPoint x="110" y="629" as="targetPoint" />
            <Array as="points">
              <mxPoint x="50" y="629" />
              <mxPoint x="80" y="629" />
            </Array>
          </mxGeometry>
        </mxCell>
        <mxCell id="Tek_yk6_RnRRJoYfqtPH-43" style="edgeStyle=orthogonalEdgeStyle;rounded=0;orthogonalLoop=1;jettySize=auto;html=1;exitX=1;exitY=0.5;exitDx=0;exitDy=0;entryX=0;entryY=0.5;entryDx=0;entryDy=0;" parent="1" source="Tek_yk6_RnRRJoYfqtPH-21" target="Tek_yk6_RnRRJoYfqtPH-26" edge="1">
          <mxGeometry relative="1" as="geometry" />
        </mxCell>
        <mxCell id="Tek_yk6_RnRRJoYfqtPH-21" value="Covariate-based PHM methods" style="whiteSpace=wrap;html=1;rounded=1;fillColor=#d5e8d4;strokeColor=#82b366;" parent="1" vertex="1">
          <mxGeometry x="111" y="599" width="180" height="60" as="geometry" />
        </mxCell>
        <mxCell id="Nw7tmcvT5D7PcshaBYKt-4" style="edgeStyle=orthogonalEdgeStyle;rounded=0;orthogonalLoop=1;jettySize=auto;html=1;exitX=0.5;exitY=1;exitDx=0;exitDy=0;entryX=0;entryY=0.5;entryDx=0;entryDy=0;" edge="1" parent="1" source="Tek_yk6_RnRRJoYfqtPH-24" target="Nw7tmcvT5D7PcshaBYKt-1">
          <mxGeometry relative="1" as="geometry" />
        </mxCell>
        <mxCell id="Tek_yk6_RnRRJoYfqtPH-24" value="&lt;b&gt;M1&lt;/b&gt;" style="ellipse;whiteSpace=wrap;html=1;aspect=fixed;fillColor=#f8cecc;strokeColor=#b85450;" parent="1" vertex="1">
          <mxGeometry x="370" y="504" width="50" height="50" as="geometry" />
        </mxCell>
        <mxCell id="Nw7tmcvT5D7PcshaBYKt-3" style="edgeStyle=orthogonalEdgeStyle;rounded=0;orthogonalLoop=1;jettySize=auto;html=1;exitX=0.5;exitY=1;exitDx=0;exitDy=0;" edge="1" parent="1" source="Tek_yk6_RnRRJoYfqtPH-26" target="Nw7tmcvT5D7PcshaBYKt-1">
          <mxGeometry relative="1" as="geometry" />
        </mxCell>
        <mxCell id="Tek_yk6_RnRRJoYfqtPH-26" value="&lt;b&gt;M2&lt;/b&gt;" style="ellipse;whiteSpace=wrap;html=1;aspect=fixed;fillColor=#d5e8d4;strokeColor=#82b366;" parent="1" vertex="1">
          <mxGeometry x="566" y="604" width="50" height="50" as="geometry" />
        </mxCell>
        <mxCell id="Tek_yk6_RnRRJoYfqtPH-45" style="edgeStyle=orthogonalEdgeStyle;rounded=0;orthogonalLoop=1;jettySize=auto;html=1;exitX=0.5;exitY=1;exitDx=0;exitDy=0;entryX=0.5;entryY=0;entryDx=0;entryDy=0;" parent="1" source="Tek_yk6_RnRRJoYfqtPH-30" target="Tek_yk6_RnRRJoYfqtPH-37" edge="1">
          <mxGeometry relative="1" as="geometry" />
        </mxCell>
        <mxCell id="Tek_yk6_RnRRJoYfqtPH-30" value="In-situ data steam" style="rounded=1;whiteSpace=wrap;html=1;fillColor=#f5f5f5;fontColor=#333333;strokeColor=#666666;" parent="1" vertex="1">
          <mxGeometry x="735" y="409" width="170" height="60" as="geometry" />
        </mxCell>
        <mxCell id="Tek_yk6_RnRRJoYfqtPH-31" value="" style="endArrow=classic;html=1;rounded=0;" parent="1" edge="1">
          <mxGeometry relative="1" as="geometry">
            <mxPoint x="420" y="528.38" as="sourcePoint" />
            <mxPoint x="760" y="529" as="targetPoint" />
          </mxGeometry>
        </mxCell>
        <mxCell id="Tek_yk6_RnRRJoYfqtPH-33" value="Offline model parameters" style="edgeLabel;resizable=0;html=1;align=left;verticalAlign=bottom;" parent="Tek_yk6_RnRRJoYfqtPH-31" connectable="0" vertex="1">
          <mxGeometry x="-1" relative="1" as="geometry" />
        </mxCell>
        <mxCell id="Tek_yk6_RnRRJoYfqtPH-34" value="" style="endArrow=classic;html=1;rounded=0;" parent="1" edge="1">
          <mxGeometry relative="1" as="geometry">
            <mxPoint x="616" y="628.76" as="sourcePoint" />
            <mxPoint x="760" y="628" as="targetPoint" />
          </mxGeometry>
        </mxCell>
        <mxCell id="Tek_yk6_RnRRJoYfqtPH-36" value="Offline model parameters" style="edgeLabel;resizable=0;html=1;align=left;verticalAlign=bottom;" parent="Tek_yk6_RnRRJoYfqtPH-34" connectable="0" vertex="1">
          <mxGeometry x="-1" relative="1" as="geometry" />
        </mxCell>
        <mxCell id="Tek_yk6_RnRRJoYfqtPH-47" value="" style="edgeStyle=orthogonalEdgeStyle;rounded=0;orthogonalLoop=1;jettySize=auto;html=1;" parent="1" source="Tek_yk6_RnRRJoYfqtPH-37" target="Tek_yk6_RnRRJoYfqtPH-46" edge="1">
          <mxGeometry relative="1" as="geometry" />
        </mxCell>
        <mxCell id="Tek_yk6_RnRRJoYfqtPH-49" value="" style="edgeStyle=orthogonalEdgeStyle;rounded=0;orthogonalLoop=1;jettySize=auto;html=1;" parent="1" source="Tek_yk6_RnRRJoYfqtPH-37" target="Tek_yk6_RnRRJoYfqtPH-48" edge="1">
          <mxGeometry relative="1" as="geometry" />
        </mxCell>
        <mxCell id="Tek_yk6_RnRRJoYfqtPH-50" value="" style="edgeStyle=orthogonalEdgeStyle;rounded=0;orthogonalLoop=1;jettySize=auto;html=1;" parent="1" source="Tek_yk6_RnRRJoYfqtPH-37" target="Tek_yk6_RnRRJoYfqtPH-48" edge="1">
          <mxGeometry relative="1" as="geometry" />
        </mxCell>
        <mxCell id="Tek_yk6_RnRRJoYfqtPH-52" value="" style="edgeStyle=orthogonalEdgeStyle;rounded=0;orthogonalLoop=1;jettySize=auto;html=1;" parent="1" source="Tek_yk6_RnRRJoYfqtPH-37" target="Tek_yk6_RnRRJoYfqtPH-51" edge="1">
          <mxGeometry relative="1" as="geometry" />
        </mxCell>
        <mxCell id="Tek_yk6_RnRRJoYfqtPH-37" value="&lt;b&gt;Model calibriation&lt;/b&gt;&lt;br&gt;(parameter &amp;amp; state co-estimation)" style="whiteSpace=wrap;html=1;fillColor=#d0cee2;strokeColor=#56517e;rounded=1;arcSize=10;" parent="1" vertex="1">
          <mxGeometry x="760" y="512" width="120" height="137" as="geometry" />
        </mxCell>
        <mxCell id="Tek_yk6_RnRRJoYfqtPH-41" value="" style="endArrow=classic;html=1;rounded=0;exitX=0.5;exitY=1;exitDx=0;exitDy=0;entryX=0.5;entryY=0;entryDx=0;entryDy=0;" parent="1" source="Tek_yk6_RnRRJoYfqtPH-12" target="Tek_yk6_RnRRJoYfqtPH-24" edge="1">
          <mxGeometry width="50" height="50" relative="1" as="geometry">
            <mxPoint x="430" y="469" as="sourcePoint" />
            <mxPoint x="480" y="419" as="targetPoint" />
          </mxGeometry>
        </mxCell>
        <mxCell id="Tek_yk6_RnRRJoYfqtPH-46" value="Conditional survival function" style="whiteSpace=wrap;html=1;fillColor=#dae8fc;strokeColor=#6c8ebf;rounded=1;arcSize=10;" parent="1" vertex="1">
          <mxGeometry x="990" y="469" width="120" height="60" as="geometry" />
        </mxCell>
        <mxCell id="Tek_yk6_RnRRJoYfqtPH-48" value="Interval survival probability" style="whiteSpace=wrap;html=1;fillColor=#dae8fc;strokeColor=#6c8ebf;rounded=1;arcSize=10;" parent="1" vertex="1">
          <mxGeometry x="990" y="629" width="120" height="60" as="geometry" />
        </mxCell>
        <mxCell id="Tek_yk6_RnRRJoYfqtPH-51" value="RUL" style="whiteSpace=wrap;html=1;fillColor=#dae8fc;strokeColor=#6c8ebf;rounded=1;arcSize=10;" parent="1" vertex="1">
          <mxGeometry x="990" y="550.5" width="120" height="60" as="geometry" />
        </mxCell>
        <mxCell id="Tek_yk6_RnRRJoYfqtPH-53" value="&lt;h1&gt;&lt;i&gt;SurvPEC&lt;/i&gt;&lt;/h1&gt;&lt;p&gt;1. Competing model evaluations&lt;/p&gt;&lt;p&gt;2. Information fusion for mulitple precursors&lt;/p&gt;" style="text;html=1;strokeColor=none;fillColor=none;spacing=5;spacingTop=-20;whiteSpace=wrap;overflow=hidden;rounded=0;" parent="1" vertex="1">
          <mxGeometry x="676" y="80" width="440" height="120" as="geometry" />
        </mxCell>
        <mxCell id="Tek_yk6_RnRRJoYfqtPH-55" style="edgeStyle=orthogonalEdgeStyle;rounded=0;orthogonalLoop=1;jettySize=auto;html=1;exitX=0.5;exitY=0;exitDx=0;exitDy=0;entryX=0.5;entryY=1;entryDx=0;entryDy=0;" parent="1" source="Tek_yk6_RnRRJoYfqtPH-54" target="Tek_yk6_RnRRJoYfqtPH-37" edge="1">
          <mxGeometry relative="1" as="geometry" />
        </mxCell>
        <mxCell id="Tek_yk6_RnRRJoYfqtPH-54" value="Future mission profile" style="rounded=1;whiteSpace=wrap;html=1;fillColor=#f5f5f5;fontColor=#333333;strokeColor=#666666;" parent="1" vertex="1">
          <mxGeometry x="735" y="709" width="170" height="60" as="geometry" />
        </mxCell>
        <mxCell id="Nw7tmcvT5D7PcshaBYKt-1" value="Lifetime estimation" style="whiteSpace=wrap;html=1;fillColor=#dae8fc;strokeColor=#6c8ebf;rounded=1;arcSize=10;" vertex="1" parent="1">
          <mxGeometry x="531" y="709" width="120" height="60" as="geometry" />
        </mxCell>
        <mxCell id="Nw7tmcvT5D7PcshaBYKt-13" style="edgeStyle=orthogonalEdgeStyle;rounded=0;orthogonalLoop=1;jettySize=auto;html=1;exitX=0;exitY=0.5;exitDx=0;exitDy=0;dashed=1;dashPattern=8 8;" edge="1" parent="1" source="Nw7tmcvT5D7PcshaBYKt-9">
          <mxGeometry relative="1" as="geometry">
            <mxPoint x="110" y="520" as="targetPoint" />
            <Array as="points">
              <mxPoint x="60" y="330" />
              <mxPoint x="60" y="520" />
            </Array>
          </mxGeometry>
        </mxCell>
        <mxCell id="Nw7tmcvT5D7PcshaBYKt-9" value="Multiple precuror fusion" style="rounded=1;whiteSpace=wrap;html=1;fillColor=#fff2cc;strokeColor=#d6b656;" vertex="1" parent="1">
          <mxGeometry x="80" y="300" width="180" height="60" as="geometry" />
        </mxCell>
        <mxCell id="Nw7tmcvT5D7PcshaBYKt-10" style="edgeStyle=orthogonalEdgeStyle;rounded=0;orthogonalLoop=1;jettySize=auto;html=1;exitX=0.5;exitY=1;exitDx=0;exitDy=0;" edge="1" parent="1" source="Nw7tmcvT5D7PcshaBYKt-9" target="Nw7tmcvT5D7PcshaBYKt-9">
          <mxGeometry relative="1" as="geometry" />
        </mxCell>
        <mxCell id="Nw7tmcvT5D7PcshaBYKt-14" style="edgeStyle=orthogonalEdgeStyle;rounded=0;orthogonalLoop=1;jettySize=auto;html=1;dashed=1;dashPattern=8 8;" edge="1" parent="1">
          <mxGeometry relative="1" as="geometry">
            <mxPoint x="110" y="620" as="targetPoint" />
            <mxPoint x="60" y="520" as="sourcePoint" />
            <Array as="points">
              <mxPoint x="60" y="519" />
              <mxPoint x="60" y="620" />
            </Array>
          </mxGeometry>
        </mxCell>
      </root>
    </mxGraphModel>
  </diagram>
</mxfile>
